<svg width="221" height="199" viewBox="0 0 221 199" fill="none" xmlns="http://www.w3.org/2000/svg">
<path d="M111.313 127.107C111.09 127.688 110.519 128.105 109.915 128.168C109.552 128.206 109.256 128.054 109.043 127.82C108.838 127.593 108.704 127.286 108.628 126.977C108.55 126.665 108.525 126.329 108.551 126.022C108.577 125.721 108.656 125.417 108.814 125.195L109.272 125.522C109.196 125.628 109.133 125.818 109.111 126.07C109.09 126.315 109.111 126.59 109.173 126.842C109.236 127.097 109.337 127.307 109.46 127.442C109.575 127.569 109.703 127.625 109.857 127.609C110.259 127.567 110.644 127.282 110.788 126.906C110.92 126.56 110.869 126.076 110.268 125.575L110.628 125.143C111.376 125.766 111.547 126.494 111.313 127.107Z" fill="white"/>
<path fillRule="evenodd" clip-rule="evenodd" d="M100.05 129.013C100.05 130.41 101.744 132.105 103.141 132.105C104.538 132.105 105.952 130.609 105.952 129.212C105.952 127.815 104.538 126.483 103.141 126.483C101.744 126.483 100.05 127.616 100.05 129.013ZM100.893 129.013C100.893 127.926 102.055 127.245 103.141 127.245C104.228 127.245 105.389 128.126 105.389 129.212C105.389 130.299 104.228 131.261 103.141 131.261C102.055 131.261 100.893 130.099 100.893 129.013Z" fill="white"/>
<path fillRule="evenodd" clip-rule="evenodd" d="M100.612 142.87C100.612 143.848 101.741 145.034 102.673 145.034C103.604 145.034 104.546 143.987 104.546 143.009C104.546 142.031 103.604 141.099 102.673 141.099C101.741 141.099 100.612 141.892 100.612 142.87ZM101.174 142.87C101.174 142.109 101.948 141.632 102.673 141.632C103.397 141.632 104.172 142.249 104.172 143.009C104.172 143.77 103.397 144.444 102.673 144.444C101.948 144.444 101.174 143.63 101.174 142.87Z" fill="white"/>
<path fillRule="evenodd" clip-rule="evenodd" d="M95.5531 140.059C95.5531 141.037 96.6828 142.223 97.6141 142.223C98.5453 142.223 99.4876 141.177 99.4876 140.199C99.4876 139.221 98.5453 138.288 97.6141 138.288C96.6828 138.288 95.5531 139.081 95.5531 140.059ZM96.1152 140.059C96.1152 139.298 96.8897 138.821 97.6141 138.821C98.3384 138.821 99.1129 139.438 99.1129 140.199C99.1129 140.959 98.3384 141.633 97.614 141.633C96.8897 141.633 96.1152 140.82 96.1152 140.059Z" fill="white"/>
<path fillRule="evenodd" clip-rule="evenodd" d="M93.8669 145.877C93.8669 147.274 95.4807 148.969 96.8111 148.969C98.1415 148.969 99.4876 147.474 99.4876 146.077C99.4876 144.68 98.1415 143.347 96.8111 143.347C95.4807 143.347 93.8669 144.48 93.8669 145.877ZM94.6698 145.877C94.6698 144.79 95.7763 144.109 96.8111 144.109C97.8458 144.109 98.9523 144.99 98.9523 146.077C98.9523 147.163 97.8458 148.126 96.8111 148.126C95.7763 148.126 94.6698 146.964 94.6698 145.877Z" fill="white"/>
<path fillRule="evenodd" clip-rule="evenodd" d="M112.415 145.062C112.415 146.319 113.868 147.845 115.065 147.845C116.263 147.845 117.474 146.499 117.474 145.242C117.474 143.984 116.263 142.785 115.065 142.785C113.868 142.785 112.415 143.805 112.415 145.062ZM113.138 145.062C113.138 144.084 114.134 143.471 115.065 143.471C115.996 143.471 116.992 144.264 116.992 145.242C116.992 146.22 115.996 147.086 115.065 147.086C114.134 147.086 113.138 146.04 113.138 145.062Z" fill="white"/>
<path fillRule="evenodd" clip-rule="evenodd" d="M101.632 118.666C102.442 116.562 106.216 115.487 109.226 114.971C115.764 114.344 122.358 114.725 128.783 116.101L131.297 116.639C131.387 116.666 131.474 116.692 131.56 116.717L131.764 116.778L131.765 116.778C132.799 117.084 133.567 117.311 134.154 117.675C135.231 118.343 136.941 119.827 137.104 120.734L147.82 143.536C149.778 147.703 146.437 152.342 141.478 152.342H96.2806C91.3219 152.342 87.9806 147.703 89.9386 143.536L101.628 118.663L101.632 118.666ZM103.555 119.891L103.571 119.858C103.543 119.844 103.516 119.829 103.489 119.814L103.438 119.787C103.16 119.527 102.947 119.238 102.784 118.908C103.069 118.404 103.746 117.858 104.924 117.347C106.238 116.777 107.873 116.383 109.376 116.124C115.785 115.513 122.248 115.889 128.547 117.237L131.017 117.766L131.429 117.889C132.508 118.21 133.11 118.389 133.557 118.666C134.18 119.053 134.997 119.722 135.488 120.309C135.117 120.393 134.725 120.473 134.503 120.498L125.52 121.511C121.723 121.939 117.898 122.053 114.083 121.852L107.854 121.522C107.623 121.51 107.4 121.477 107.188 121.422C105.426 120.966 104.287 120.514 103.555 119.891ZM103.05 120.966L92.0526 144.367C90.7473 147.145 92.9748 150.238 96.2806 150.238H141.478C144.784 150.238 147.011 147.145 145.706 144.367L135.014 121.616C134.864 121.63 134.731 121.642 134.629 121.653L125.647 122.666C121.788 123.101 117.901 123.217 114.023 123.012L107.794 122.683C107.495 122.667 107.196 122.623 106.905 122.548C105.273 122.126 103.987 121.668 103.05 120.966Z" fill="white"/>
<path fillRule="evenodd" clip-rule="evenodd" d="M110.759 104.05C110.687 103.977 110.573 103.98 110.504 104.056L108.531 106.219C108.462 106.294 108.465 106.414 108.537 106.487C108.569 106.52 108.61 106.537 108.652 106.539C108.659 106.542 108.667 106.544 108.674 106.546L109.966 106.826L109.88 107.292C109.86 107.395 109.924 107.495 110.023 107.515C110.121 107.535 110.216 107.468 110.235 107.365L110.321 106.903L110.563 106.956C110.656 106.976 110.747 106.913 110.767 106.815C110.786 106.717 110.726 106.621 110.632 106.601L110.387 106.547L110.815 104.248C110.82 104.222 110.819 104.196 110.814 104.171C110.811 104.127 110.792 104.083 110.759 104.05ZM110.032 106.47L109.005 106.247L110.348 104.775L110.032 106.47Z" fill="white"/>
<path fillRule="evenodd" clip-rule="evenodd" d="M115.729 105.026C115.657 104.953 115.542 104.956 115.473 105.032L113.501 107.195C113.432 107.27 113.434 107.39 113.506 107.463C113.539 107.496 113.58 107.513 113.622 107.515C113.629 107.518 113.636 107.52 113.644 107.522L114.936 107.802L114.849 108.268C114.83 108.371 114.894 108.471 114.992 108.491C115.09 108.511 115.185 108.444 115.205 108.341L115.29 107.879L115.532 107.932C115.625 107.952 115.717 107.889 115.736 107.791C115.755 107.693 115.695 107.597 115.602 107.577L115.357 107.523L115.784 105.224C115.789 105.198 115.789 105.172 115.784 105.147C115.78 105.103 115.762 105.059 115.729 105.026ZM115.002 107.446L113.974 107.223L115.318 105.751L115.002 107.446Z" fill="white"/>
<path fillRule="evenodd" clip-rule="evenodd" d="M111.342 105.303C111.467 104.645 112.076 104.217 112.703 104.347C113.33 104.478 113.737 105.118 113.613 105.776L113.418 106.806C113.294 107.465 112.685 107.893 112.058 107.762C111.431 107.632 111.023 106.992 111.148 106.333L111.342 105.303ZM113.295 105.71L113.1 106.74C113.011 107.214 112.572 107.522 112.121 107.428C111.669 107.334 111.376 106.873 111.466 106.399L111.66 105.369C111.75 104.895 112.188 104.587 112.64 104.681C113.091 104.775 113.385 105.236 113.295 105.71Z" fill="white"/>
<path fillRule="evenodd" clip-rule="evenodd" d="M118.935 95.0613C119.004 94.9856 119.118 94.9831 119.19 95.0555C119.223 95.0889 119.242 95.1323 119.245 95.1769C119.25 95.2016 119.251 95.2278 119.246 95.2541L118.818 97.5531L119.064 97.6064C119.157 97.6266 119.217 97.7225 119.198 97.8205C119.178 97.9185 119.087 97.9815 118.994 97.9613L118.752 97.9088L118.666 98.3704C118.647 98.4734 118.552 98.5407 118.454 98.5205C118.356 98.5004 118.292 98.4005 118.311 98.2974L118.397 97.8318L117.105 97.5513C117.098 97.5497 117.09 97.5475 117.083 97.545C117.042 97.5427 117 97.5253 116.968 97.4925C116.896 97.4201 116.893 97.3 116.962 97.2244L118.935 95.0613ZM117.436 97.2531L118.464 97.4761L118.779 95.7803L117.436 97.2531Z" fill="white"/>
<path fillRule="evenodd" clip-rule="evenodd" d="M123.905 96.0372C123.974 95.9615 124.088 95.959 124.16 96.0314C124.193 96.0648 124.211 96.1082 124.215 96.1528C124.22 96.1775 124.221 96.2037 124.216 96.23L123.788 98.529L124.033 98.5823C124.126 98.6025 124.186 98.6984 124.167 98.7964C124.148 98.8944 124.057 98.9574 123.963 98.9372L123.722 98.8847L123.636 99.3463C123.617 99.4493 123.521 99.5166 123.423 99.4964C123.325 99.4763 123.261 99.3764 123.28 99.2733L123.367 98.8077L122.075 98.5272C122.067 98.5256 122.06 98.5234 122.053 98.5209C122.011 98.5186 121.97 98.5012 121.937 98.4684C121.865 98.396 121.863 98.2759 121.932 98.2003L123.905 96.0372ZM122.406 98.229L123.433 98.452L123.749 96.7562L122.406 98.229Z" fill="white"/>
<path fillRule="evenodd" clip-rule="evenodd" d="M121.134 95.353C120.507 95.2223 119.898 95.6502 119.773 96.3088L119.579 97.3387C119.454 97.9973 119.862 98.6371 120.489 98.7679C121.116 98.8986 121.725 98.4706 121.849 97.812L122.044 96.7821C122.168 96.1235 121.761 95.4837 121.134 95.353ZM121.532 97.7457L121.726 96.7159C121.816 96.2417 121.522 95.781 121.071 95.6869C120.62 95.5928 120.181 95.9009 120.091 96.3751L119.897 97.405C119.807 97.8791 120.101 98.3398 120.552 98.4339C121.003 98.528 121.442 98.2199 121.532 97.7457Z" fill="white"/>
<path fillRule="evenodd" clip-rule="evenodd" d="M126.497 104.05C126.425 103.977 126.311 103.98 126.242 104.056L124.269 106.219C124.2 106.294 124.203 106.414 124.275 106.487C124.307 106.52 124.349 106.537 124.39 106.539C124.397 106.542 124.405 106.544 124.412 106.546L125.704 106.826L125.618 107.292C125.599 107.395 125.663 107.495 125.761 107.515C125.859 107.535 125.954 107.468 125.973 107.365L126.059 106.903L126.301 106.956C126.394 106.976 126.485 106.913 126.505 106.815C126.524 106.717 126.464 106.621 126.371 106.601L126.125 106.547L126.553 104.248C126.558 104.222 126.557 104.196 126.552 104.171C126.549 104.127 126.53 104.083 126.497 104.05ZM125.771 106.47L124.743 106.247L126.086 104.775L125.771 106.47Z" fill="white"/>
<path fillRule="evenodd" clip-rule="evenodd" d="M131.467 105.026C131.395 104.953 131.281 104.956 131.212 105.032L129.239 107.195C129.17 107.27 129.172 107.39 129.244 107.463C129.277 107.496 129.318 107.513 129.36 107.515C129.363 107.516 129.366 107.517 129.37 107.518L129.373 107.519C129.376 107.52 129.379 107.521 129.382 107.522L130.674 107.802L130.587 108.268C130.568 108.371 130.632 108.471 130.73 108.491C130.828 108.511 130.924 108.444 130.943 108.341L131.029 107.879L131.27 107.932C131.364 107.952 131.455 107.889 131.474 107.791C131.493 107.693 131.433 107.597 131.34 107.577L131.095 107.523L131.523 105.224C131.528 105.198 131.527 105.172 131.522 105.147C131.518 105.103 131.5 105.059 131.467 105.026ZM130.74 107.446L129.713 107.223L131.056 105.751L130.74 107.446Z" fill="white"/>
<path fillRule="evenodd" clip-rule="evenodd" d="M127.08 105.303C127.205 104.645 127.814 104.217 128.441 104.347C129.068 104.478 129.475 105.118 129.351 105.776L129.156 106.806C129.032 107.465 128.423 107.893 127.796 107.762C127.169 107.632 126.761 106.992 126.886 106.333L127.08 105.303ZM129.033 105.71L128.839 106.74C128.749 107.214 128.31 107.522 127.859 107.428C127.408 107.334 127.114 106.873 127.204 106.399L127.398 105.369C127.488 104.895 127.927 104.587 128.378 104.681C128.829 104.775 129.123 105.236 129.033 105.71Z" fill="white"/>
<path fillRule="evenodd" clip-rule="evenodd" d="M114.438 86.6291C114.507 86.5535 114.622 86.5509 114.694 86.6233C114.727 86.6567 114.745 86.7001 114.749 86.7447C114.754 86.7694 114.754 86.7955 114.75 86.8219L114.322 89.1209L114.567 89.1742C114.66 89.1944 114.72 89.2903 114.701 89.3883C114.682 89.4863 114.59 89.5493 114.497 89.5291L114.255 89.4766L114.17 89.9381C114.15 90.0412 114.055 90.1085 113.957 90.0883C113.859 90.0682 113.795 89.9683 113.814 89.8652L113.901 89.3996L112.609 89.1191L112.602 89.1175L112.596 89.1158C112.594 89.1152 112.592 89.1146 112.59 89.114C112.589 89.1136 112.588 89.1132 112.587 89.1127C112.545 89.1105 112.504 89.0931 112.471 89.0603C112.399 88.9879 112.397 88.8678 112.466 88.7922L114.438 86.6291ZM112.939 88.8208L113.967 89.0439L114.283 87.3481L112.939 88.8208Z" fill="white"/>
<path fillRule="evenodd" clip-rule="evenodd" d="M119.408 87.605C119.477 87.5294 119.591 87.5268 119.663 87.5992C119.696 87.6326 119.715 87.676 119.718 87.7206C119.723 87.7453 119.724 87.7715 119.719 87.7978L119.291 90.0968L119.537 90.1501C119.63 90.1703 119.69 90.2662 119.671 90.3642C119.651 90.4622 119.56 90.5252 119.467 90.505L119.225 90.4525L119.139 90.9141C119.12 91.0172 119.025 91.0844 118.927 91.0642C118.828 91.0441 118.764 90.9442 118.784 90.8411L118.87 90.3755L117.578 90.095C117.571 90.0934 117.563 90.0912 117.556 90.0886C117.514 90.0864 117.473 90.069 117.441 90.0362C117.369 89.9638 117.366 89.8437 117.435 89.7681L119.408 87.605ZM117.909 89.7967L118.937 90.0198L119.252 88.324L117.909 89.7967Z" fill="white"/>
<path fillRule="evenodd" clip-rule="evenodd" d="M116.637 86.9208C116.01 86.7901 115.401 87.218 115.277 87.8766L115.082 88.9065C114.958 89.5651 115.365 90.2049 115.992 90.3356C116.619 90.4664 117.228 90.0384 117.353 89.3798L117.547 88.3499C117.672 87.6913 117.264 87.0515 116.637 86.9208ZM117.035 89.3135L117.23 88.2837C117.319 87.8095 117.026 87.3488 116.574 87.2547C116.123 87.1606 115.684 87.4687 115.595 87.9429L115.4 88.9727C115.311 89.4469 115.604 89.9076 116.055 90.0017C116.507 90.0958 116.945 89.7877 117.035 89.3135Z" fill="white"/>
<path fillRule="evenodd" clip-rule="evenodd" d="M52.8352 0C49.731 0 47.2145 2.51682 47.2145 5.62147C47.2145 6.08065 47.2695 6.52697 47.3734 6.95419L7.18073 65.8513C6.85589 65.7986 6.52257 65.7712 6.18285 65.7712C2.76815 65.7712 0 68.5397 0 71.9548C0 75.3699 2.76815 78.1384 6.18285 78.1384C7.82584 78.1384 9.31915 77.4975 10.4265 76.452H46.7465C47.5904 78.3415 49.1839 79.8227 51.149 80.5173V185.508C51.149 185.731 51.1814 185.946 51.2417 186.149C46.4901 188.511 43.2799 193.412 43.2799 199H155.695C155.695 191.83 149.937 185.989 142.769 185.887L129.176 185.694C129.542 185.081 129.825 184.439 130.041 183.808C130.598 182.184 130.732 180.58 130.682 179.578L130.625 178.433L129.755 179.179C128.893 179.918 127.839 180.117 126.992 180.1C128.512 178.789 129.347 177.39 129.684 175.982C130.089 174.288 129.755 172.659 129.162 171.269C128.57 169.881 127.707 168.699 127 167.871C126.646 167.455 126.327 167.124 126.096 166.895C126.038 166.838 125.985 166.787 125.939 166.743C125.893 166.699 125.853 166.662 125.82 166.631C125.787 166.601 125.761 166.577 125.743 166.561L125.722 166.542L125.715 166.536L125.713 166.535C125.713 166.535 125.712 166.534 125.577 166.689L125.712 166.534L124.158 165.18L124.81 167.135L124.811 167.139L124.818 167.161C124.821 167.171 124.824 167.182 124.828 167.196C124.834 167.213 124.84 167.234 124.846 167.258C124.856 167.293 124.868 167.335 124.88 167.384C124.898 167.454 124.918 167.538 124.939 167.634C125.008 167.957 125.081 168.406 125.098 168.908C125.119 169.569 125.041 170.284 124.759 170.929C124.651 170.7 124.509 170.46 124.327 170.22C123.648 169.325 122.439 168.464 120.385 168.091C119.81 167.986 119.434 167.659 119.18 167.172C118.915 166.664 118.79 165.987 118.774 165.258C118.757 164.537 118.848 163.809 118.976 163.232C119.04 162.944 119.111 162.702 119.178 162.525C119.228 162.39 119.265 162.324 119.278 162.3C119.28 162.296 119.281 162.294 119.282 162.292C119.283 162.291 119.282 162.29 119.282 162.29L120.648 160.924L118.756 161.35C116.394 161.881 114.677 162.988 113.478 164.451C112.285 165.907 111.632 167.684 111.334 169.524C110.809 172.764 111.372 176.282 112.138 178.839C111.253 178.527 110.252 177.906 109.267 177.145C107.958 176.132 106.775 174.949 106.092 174.175L105.159 173.117L105.109 174.527C104.991 177.833 106.246 180.716 107.832 182.959C108.489 183.888 109.207 184.713 109.916 185.42L56.7698 184.665L56.1381 184.731C55.973 184.748 55.8089 184.768 55.6456 184.791V80.6916C57.8674 80.0968 59.6872 78.5186 60.6102 76.452H102.026C102.933 77.8079 104.479 78.7006 106.233 78.7006C107.272 78.7006 108.239 78.3867 109.043 77.8486V79.8249C109.043 80.4458 109.546 80.9492 110.167 80.9492H110.627L83.2504 144.656C80.8589 150.221 84.9399 156.417 90.9964 156.417H146.2C152.257 156.417 156.338 150.221 153.946 144.656L126.57 80.9492H128.264C128.84 80.9492 129.323 80.5136 129.382 79.9405L130.108 72.923C130.117 72.8399 130.116 72.7562 130.106 72.6733L129.397 66.7615C129.329 66.1965 128.849 65.7712 128.28 65.7712H123.657V61.8362H124.219C126.702 61.8362 128.716 59.8227 128.716 57.339C128.716 54.8553 120.801 53.9661 118.317 53.9661H111.853C109.37 53.9661 107.357 54.8553 107.357 57.339C107.357 59.8227 109.37 61.8362 111.853 61.8362V65.7712H110.167C109.546 65.7712 109.043 66.2746 109.043 66.8955V69.4339C108.239 68.8958 107.272 68.5819 106.233 68.5819C104.734 68.5819 103.388 69.2333 102.462 70.2684H60.6102C59.6872 68.2017 57.8674 66.6236 55.6456 66.0287V10.4909C57.3257 9.51891 58.456 7.70221 58.456 5.62147C58.456 2.51682 55.9395 0 52.8352 0ZM11.0566 68.1494C11.5427 68.7712 11.9124 69.4885 12.133 70.2684H46.7465C47.5904 68.3789 49.1839 66.8977 51.149 66.203V10.9856C50.8554 10.8934 50.5723 10.7777 50.3016 10.6408L11.0566 68.1494ZM127.845 185.675C128.343 184.987 128.712 184.22 128.978 183.443C129.318 182.452 129.483 181.468 129.542 180.665C127.957 181.47 126.228 181.243 125.446 180.982L124.387 180.629L125.302 179.989C127.323 178.574 128.26 177.1 128.591 175.72C128.923 174.331 128.66 172.956 128.128 171.711C127.614 170.506 126.862 169.453 126.213 168.68C126.214 168.706 126.215 168.733 126.217 168.759C126.218 168.797 126.22 168.834 126.221 168.872C126.258 170.03 126.04 171.553 124.898 172.696L123.585 174.008L123.949 172.188L123.949 172.185C123.949 172.164 123.953 172.023 123.885 171.783C123.814 171.536 123.678 171.224 123.431 170.899C122.946 170.26 122.002 169.528 120.184 169.197C119.214 169.021 118.571 168.435 118.183 167.692C117.807 166.97 117.668 166.101 117.65 165.284C117.631 164.46 117.734 163.641 117.878 162.989L117.889 162.939L117.895 162.913C117.902 162.883 117.909 162.854 117.916 162.825L117.927 162.782L117.936 162.745C116.358 163.28 115.196 164.129 114.348 165.164C113.313 166.427 112.719 168.002 112.443 169.704C111.89 173.122 112.637 176.943 113.508 179.419L113.798 180.245L112.927 180.166C111.516 180.038 109.929 179.077 108.58 178.034C107.728 177.375 106.93 176.651 106.275 176.001C106.505 178.405 107.502 180.545 108.75 182.31C109.645 183.575 110.66 184.635 111.589 185.444L127.845 185.675ZM121.971 65.7712H113.54V60.1497H111.853C110.301 60.1497 109.043 58.8913 109.043 57.339C109.043 55.7867 110.301 55.3715 111.853 55.3715H118.036C119.588 55.3715 127.029 55.7867 127.029 57.339C127.029 58.8913 125.771 60.1497 124.219 60.1497H121.971V65.7712ZM123.473 80.9492H113.724C113.619 81.1349 113.522 81.3298 113.434 81.5339L85.8324 145.766C84.2381 149.476 86.9587 153.607 90.9964 153.607H146.2C150.238 153.607 152.958 149.476 151.364 145.766L123.762 81.5339C123.675 81.3298 123.578 81.1349 123.473 80.9492Z" fill="white"/>
<path fillRule="evenodd" clip-rule="evenodd" d="M219.459 47.9633C217.586 46.169 214.614 46.2328 212.82 48.1057L161.497 101.685C159.703 103.558 159.767 106.531 161.639 108.326C162.488 109.139 163.562 109.57 164.65 109.625C164.835 109.689 165.025 109.742 165.221 109.782L198.833 116.73L196.579 128.262C196.08 130.815 197.745 133.29 200.299 133.789C202.852 134.288 205.326 132.623 205.825 130.069L208.06 118.637L214.348 119.936C216.775 120.438 219.149 118.877 219.651 116.45C220.153 114.022 218.592 111.648 216.165 111.146L209.782 109.827L220.912 52.8832C221.039 52.2294 221.025 51.5808 220.891 50.9692C220.8 49.8656 220.322 48.7895 219.459 47.9633ZM200.555 107.92L173.824 102.394L208.765 65.9166L200.555 107.92Z" fill="white"/>
<path fillRule="evenodd" clip-rule="evenodd" d="M103.452 37.7165C103.38 37.6441 103.266 37.6467 103.197 37.7223L101.224 39.8854C101.155 39.9611 101.158 40.0811 101.23 40.1535C101.262 40.1863 101.303 40.2038 101.345 40.206C101.352 40.2086 101.36 40.2107 101.367 40.2123L102.659 40.4928L102.573 40.9584C102.553 41.0615 102.617 41.1614 102.716 41.1815C102.814 41.2017 102.909 41.1345 102.928 41.0314L103.014 40.5698L103.256 40.6223C103.349 40.6425 103.44 40.5795 103.46 40.4815C103.479 40.3835 103.419 40.2876 103.325 40.2674L103.08 40.2141L103.508 37.9152C103.513 37.8888 103.512 37.8626 103.507 37.8379C103.504 37.7933 103.485 37.7499 103.452 37.7165ZM102.725 40.1371L101.698 39.9141L103.041 38.4414L102.725 40.1371Z" fill="white"/>
<path fillRule="evenodd" clip-rule="evenodd" d="M108.422 38.6924C108.35 38.62 108.235 38.6226 108.166 38.6982L106.194 40.8613C106.125 40.937 106.127 41.057 106.199 41.1294C106.232 41.1622 106.273 41.1797 106.315 41.1819C106.322 41.1845 106.329 41.1866 106.337 41.1882L107.629 41.4687L107.542 41.9343C107.523 42.0374 107.587 42.1373 107.685 42.1574C107.783 42.1776 107.878 42.1104 107.898 42.0073L107.983 41.5457L108.225 41.5982C108.318 41.6184 108.41 41.5554 108.429 41.4574C108.448 41.3594 108.388 41.2635 108.295 41.2433L108.05 41.19L108.477 38.8911C108.482 38.8647 108.482 38.8385 108.477 38.8138C108.473 38.7692 108.455 38.7258 108.422 38.6924ZM107.695 41.113L106.667 40.89L108.011 39.4173L107.695 41.113Z" fill="white"/>
<path fillRule="evenodd" clip-rule="evenodd" d="M104.035 38.9698C104.16 38.3112 104.769 37.8833 105.396 38.014C106.023 38.1447 106.43 38.7845 106.306 39.4431L106.111 40.473C105.987 41.1316 105.378 41.5596 104.751 41.4289C104.124 41.2982 103.716 40.6583 103.841 39.9997L104.035 38.9698ZM105.988 39.3769L105.793 40.4068C105.704 40.8809 105.265 41.1891 104.814 41.0949C104.362 41.0008 104.069 40.5402 104.159 40.066L104.353 39.0361C104.443 38.5619 104.881 38.2538 105.333 38.3479C105.784 38.442 106.078 38.9027 105.988 39.3769Z" fill="white"/>
<path fillRule="evenodd" clip-rule="evenodd" d="M118.935 24.2308C119.004 24.1551 119.118 24.1526 119.19 24.225C119.223 24.2584 119.242 24.3018 119.245 24.3464C119.25 24.3711 119.251 24.3972 119.246 24.4236L118.818 26.7226L119.064 26.7759C119.157 26.7961 119.217 26.892 119.198 26.99C119.178 27.088 119.087 27.151 118.994 27.1308L118.752 27.0783L118.666 27.5399C118.647 27.6429 118.552 27.7102 118.454 27.69C118.356 27.6699 118.292 27.57 118.311 27.4669L118.397 27.0013L117.105 26.7208C117.098 26.7192 117.09 26.717 117.083 26.7144C117.042 26.7122 117 26.6948 116.968 26.662C116.896 26.5896 116.893 26.4695 116.962 26.3939L118.935 24.2308ZM117.436 26.4225L118.464 26.6456L118.779 24.9498L117.436 26.4225Z" fill="white"/>
<path fillRule="evenodd" clip-rule="evenodd" d="M123.905 25.2067C123.974 25.131 124.088 25.1285 124.16 25.2009C124.193 25.2343 124.211 25.2777 124.215 25.3223C124.22 25.347 124.221 25.3731 124.216 25.3995L123.788 27.6985L124.033 27.7518C124.126 27.772 124.186 27.8679 124.167 27.9659C124.148 28.0639 124.057 28.1269 123.963 28.1067L123.722 28.0542L123.636 28.5158C123.617 28.6188 123.521 28.6861 123.423 28.6659C123.325 28.6458 123.261 28.5459 123.28 28.4428L123.367 27.9772L122.075 27.6967C122.067 27.6951 122.06 27.6929 122.053 27.6903C122.011 27.6881 121.97 27.6707 121.937 27.6379C121.865 27.5655 121.863 27.4454 121.932 27.3698L123.905 25.2067ZM122.406 27.3984L123.433 27.6215L123.749 25.9257L122.406 27.3984Z" fill="white"/>
<path fillRule="evenodd" clip-rule="evenodd" d="M121.134 24.5225C120.507 24.3918 119.898 24.8197 119.773 25.4783L119.579 26.5082C119.454 27.1668 119.862 27.8066 120.489 27.9373C121.116 28.0681 121.725 27.6401 121.849 26.9815L122.044 25.9516C122.168 25.293 121.761 24.6532 121.134 24.5225ZM121.532 26.9152L121.726 25.8854C121.816 25.4112 121.522 24.9505 121.071 24.8564C120.62 24.7623 120.181 25.0704 120.091 25.5446L119.897 26.5744C119.807 27.0486 120.101 27.5093 120.552 27.6034C121.003 27.6975 121.442 27.3894 121.532 26.9152Z" fill="white"/>
<path fillRule="evenodd" clip-rule="evenodd" d="M130.432 39.9651C130.36 39.8927 130.246 39.8953 130.177 39.9709L128.204 42.134C128.135 42.2096 128.137 42.3297 128.209 42.4021C128.242 42.4349 128.283 42.4524 128.325 42.4546C128.33 42.4563 128.335 42.4578 128.34 42.4591L128.344 42.4603L128.347 42.4609L129.639 42.7414L129.552 43.207C129.533 43.3101 129.597 43.41 129.695 43.4301C129.793 43.4503 129.889 43.3831 129.908 43.28L129.994 42.8184L130.235 42.8709C130.329 42.8911 130.42 42.8281 130.439 42.7301C130.458 42.6321 130.398 42.5362 130.305 42.516L130.06 42.4627L130.488 40.1637C130.493 40.1374 130.492 40.1112 130.487 40.0865C130.483 40.0419 130.465 39.9985 130.432 39.9651ZM129.705 42.3857L128.678 42.1627L130.021 40.6899L129.705 42.3857Z" fill="white"/>
<path fillRule="evenodd" clip-rule="evenodd" d="M135.401 40.941C135.329 40.8686 135.215 40.8712 135.146 40.9468L133.173 43.1099C133.104 43.1855 133.107 43.3056 133.179 43.378C133.211 43.4108 133.253 43.4283 133.294 43.4305C133.302 43.433 133.309 43.4352 133.316 43.4368L134.608 43.7173L134.522 44.1829C134.503 44.286 134.567 44.3859 134.665 44.406C134.763 44.4262 134.858 44.359 134.877 44.2559L134.963 43.7943L135.205 43.8468C135.298 43.867 135.389 43.804 135.409 43.706C135.428 43.608 135.368 43.5121 135.275 43.4919L135.029 43.4386L135.457 41.1396C135.462 41.1133 135.462 41.0871 135.456 41.0624C135.453 41.0178 135.434 40.9744 135.401 40.941ZM134.675 43.3616L133.647 43.1386L134.99 41.6658L134.675 43.3616Z" fill="white"/>
<path fillRule="evenodd" clip-rule="evenodd" d="M131.015 41.2184C131.139 40.5598 131.749 40.1319 132.376 40.2626C133.003 40.3933 133.41 41.0331 133.286 41.6917L133.091 42.7216C132.967 43.3802 132.357 43.8082 131.73 43.6775C131.103 43.5467 130.696 42.9069 130.82 42.2483L131.015 41.2184ZM132.968 41.6255L132.773 42.6553C132.684 43.1295 132.245 43.4376 131.793 43.3435C131.342 43.2494 131.049 42.7887 131.138 42.3146L131.333 41.2847C131.423 40.8105 131.861 40.5024 132.313 40.5965C132.764 40.6906 133.057 41.1513 132.968 41.6255Z" fill="white"/>
<path fillRule="evenodd" clip-rule="evenodd" d="M106.569 10.1771C106.638 10.1015 106.753 10.0989 106.825 10.1713C106.858 10.2047 106.876 10.2481 106.88 10.2927C106.885 10.3174 106.885 10.3436 106.88 10.37L106.453 12.6689L106.698 12.7222C106.791 12.7424 106.851 12.8383 106.832 12.9363C106.813 13.0343 106.721 13.0973 106.628 13.0771L106.386 13.0246L106.3 13.4862C106.281 13.5893 106.186 13.6565 106.088 13.6363C105.99 13.6162 105.926 13.5163 105.945 13.4132L106.032 12.9476L104.74 12.6671C104.732 12.6655 104.725 12.6634 104.718 12.6608C104.676 12.6586 104.635 12.6411 104.602 12.6083C104.53 12.5359 104.528 12.4159 104.596 12.3402L106.569 10.1771ZM105.07 12.3689L106.098 12.5919L106.414 10.8962L105.07 12.3689Z" fill="white"/>
<path fillRule="evenodd" clip-rule="evenodd" d="M111.539 11.153C111.608 11.0774 111.722 11.0748 111.794 11.1472C111.827 11.1806 111.846 11.224 111.849 11.2686C111.854 11.2933 111.855 11.3195 111.85 11.3459L111.422 13.6448L111.667 13.6981C111.761 13.7184 111.821 13.8142 111.801 13.9122C111.782 14.0102 111.691 14.0732 111.598 14.053L111.356 14.0005L111.27 14.4621C111.251 14.5652 111.156 14.6324 111.058 14.6123C110.959 14.5921 110.895 14.4922 110.915 14.3891L111.001 13.9235L109.709 13.643C109.702 13.6414 109.694 13.6393 109.687 13.6367C109.645 13.6345 109.604 13.617 109.571 13.5842C109.499 13.5118 109.497 13.3918 109.566 13.3161L111.539 11.153ZM110.04 13.3448L111.067 13.5678L111.383 11.8721L110.04 13.3448Z" fill="white"/>
<path fillRule="evenodd" clip-rule="evenodd" d="M108.768 10.4688C108.141 10.3381 107.532 10.766 107.408 11.4246L107.213 12.4545C107.089 13.1131 107.496 13.753 108.123 13.8837C108.75 14.0144 109.359 13.5864 109.484 12.9278L109.678 11.898C109.803 11.2394 109.395 10.5995 108.768 10.4688ZM109.166 12.8616L109.36 11.8317C109.45 11.3575 109.157 10.8968 108.705 10.8027C108.254 10.7086 107.815 11.0167 107.726 11.4909L107.531 12.5208C107.441 12.995 107.735 13.4556 108.186 13.5498C108.638 13.6439 109.076 13.3357 109.166 12.8616Z" fill="white"/>
</svg>
