<svg width="23" height="28" viewBox="0 0 23 28" fill="none" xmlns="http://www.w3.org/2000/svg">
<path d="M6.16659 22H16.8333V19.3333H6.16659V22ZM6.16659 16.6667H16.8333V14H6.16659V16.6667ZM3.49992 27.3333C2.76659 27.3333 2.13881 27.0722 1.61659 26.55C1.09436 26.0278 0.833252 25.4 0.833252 24.6667V3.33332C0.833252 2.59999 1.09436 1.97221 1.61659 1.44999C2.13881 0.927768 2.76659 0.666656 3.49992 0.666656H14.1666L22.1666 8.66666V24.6667C22.1666 25.4 21.9055 26.0278 21.3833 26.55C20.861 27.0722 20.2333 27.3333 19.4999 27.3333H3.49992ZM12.8333 9.99999V3.33332H3.49992V24.6667H19.4999V9.99999H12.8333Z" fill="white"/>
</svg>
