<svg width="25" height="24" viewBox="0 0 25 24" fill="none" xmlns="http://www.w3.org/2000/svg">
<path d="M3.16659 24C2.03325 24 1.2277 23.4944 0.74992 22.4833C0.272143 21.4722 0.388809 20.5333 1.09992 19.6667L8.49992 10.6667V2.66667H7.16659C6.78881 2.66667 6.47214 2.53889 6.21659 2.28333C5.96103 2.02778 5.83325 1.71111 5.83325 1.33333C5.83325 0.955556 5.96103 0.638889 6.21659 0.383333C6.47214 0.127778 6.78881 0 7.16659 0H17.8333C18.211 0 18.5277 0.127778 18.7833 0.383333C19.0388 0.638889 19.1666 0.955556 19.1666 1.33333C19.1666 1.71111 19.0388 2.02778 18.7833 2.28333C18.5277 2.53889 18.211 2.66667 17.8333 2.66667H16.4999V10.6667L23.8999 19.6667C24.611 20.5333 24.7277 21.4722 24.2499 22.4833C23.7721 23.4944 22.9666 24 21.8333 24H3.16659ZM3.16659 21.3333H21.8333L13.8333 11.6V2.66667H11.1666V11.6L3.16659 21.3333Z" fill="white"/>
</svg>
