<svg width="27" height="29" viewBox="0 0 27 29" fill="none" xmlns="http://www.w3.org/2000/svg">
<path d="M22.6334 28.3C22.4556 28.3 22.289 28.2722 22.1334 28.2167C21.9779 28.1611 21.8334 28.0667 21.7001 27.9333L14.9001 21.1333C14.7667 21 14.6723 20.8556 14.6167 20.7C14.5612 20.5445 14.5334 20.3778 14.5334 20.2C14.5334 20.0222 14.5612 19.8556 14.6167 19.7C14.6723 19.5445 14.7667 19.4 14.9001 19.2667L17.7334 16.4333C17.8667 16.3 18.0112 16.2056 18.1667 16.15C18.3223 16.0945 18.489 16.0667 18.6667 16.0667C18.8445 16.0667 19.0112 16.0945 19.1667 16.15C19.3223 16.2056 19.4667 16.3 19.6001 16.4333L26.4001 23.2333C26.5334 23.3667 26.6279 23.5111 26.6834 23.6667C26.739 23.8222 26.7668 23.9889 26.7668 24.1667C26.7668 24.3445 26.739 24.5111 26.6834 24.6667C26.6279 24.8222 26.5334 24.9667 26.4001 25.1L23.5667 27.9333C23.4334 28.0667 23.289 28.1611 23.1334 28.2167C22.9779 28.2722 22.8112 28.3 22.6334 28.3ZM22.6334 25.1333L23.6001 24.1667L18.7001 19.2667L17.7334 20.2333L22.6334 25.1333ZM4.33342 28.3333C4.15564 28.3333 3.98341 28.3 3.81675 28.2333C3.65008 28.1667 3.50008 28.0667 3.36675 27.9333L0.566748 25.1333C0.433415 25 0.333415 24.85 0.266748 24.6833C0.200081 24.5167 0.166748 24.3445 0.166748 24.1667C0.166748 23.9889 0.200081 23.8222 0.266748 23.6667C0.333415 23.5111 0.433415 23.3667 0.566748 23.2333L7.63342 16.1667H10.4667L11.6001 15.0333L6.10008 9.53334H4.20008L0.166748 5.50001L3.93341 1.73334L7.96675 5.76668V7.66668L13.4667 13.1667L17.3334 9.30001L15.9001 7.86668L17.7667 6.00001H14.0001L13.0667 5.06668L17.8001 0.333344L18.7334 1.26668V5.03334L20.6001 3.16668L25.3334 7.90001C25.7112 8.27779 26.0001 8.70557 26.2001 9.18334C26.4001 9.66112 26.5001 10.1667 26.5001 10.7C26.5001 11.2333 26.4001 11.7445 26.2001 12.2333C26.0001 12.7222 25.7112 13.1556 25.3334 13.5333L22.5001 10.7L20.6334 12.5667L19.2334 11.1667L12.3334 18.0667V20.8667L5.26675 27.9333C5.13341 28.0667 4.98897 28.1667 4.83342 28.2333C4.67786 28.3 4.51119 28.3333 4.33342 28.3333ZM4.33342 25.1333L10.0001 19.4667V18.5H9.03341L3.36675 24.1667L4.33342 25.1333ZM4.33342 25.1333L3.36675 24.1667L3.86675 24.6333L4.33342 25.1333Z" fill="white"/>
</svg>
